<svg width="214" height="31" viewBox="0 0 214 31" fill="none" xmlns="http://www.w3.org/2000/svg">
<path d="M6.87723 9.96727C6.84886 9.93142 6.82214 9.89767 6.82214 9.86391C7.99115 9.69982 9.05314 9.09469 9.79038 8.17257C10.228 7.46169 10.4949 6.65896 10.5699 5.82749L10.5791 5.77215C10.6361 5.4296 10.6948 5.07705 10.7858 4.72993C11.5294 1.46721 13.9279 0.19571 15.7688 0.09375H15.8528C18.4373 0.09375 19.8524 2.34287 20.2602 3.14655C19.9012 3.30679 19.5545 3.49321 19.2228 3.70433C19.0609 3.80029 18.905 3.90225 18.7611 3.99821C18.5272 3.54839 17.5258 1.82107 15.8348 1.82107C15.3491 1.85106 13.1184 2.15094 12.4588 5.11377C12.3904 5.38237 12.3404 5.66945 12.2886 5.96692L12.2885 5.9679L12.2872 5.97522C12.2805 6.01378 12.2737 6.05251 12.2669 6.09139C12.1577 7.18661 11.7921 8.24069 11.1995 9.16818C10.3747 10.2806 9.19029 11.0731 7.84753 11.4113L7.44577 10.8115C7.41477 10.767 7.38392 10.7228 7.35333 10.6791C7.1946 10.4521 7.0428 10.2351 6.91209 10.0138C6.90143 9.99786 6.88917 9.98237 6.87723 9.96727Z" fill="#141004"/>
<path d="M6.64318 14.4099C6.44336 13.6004 6.06425 12.8461 5.53384 12.2028C5.31796 11.9089 5.0961 11.603 4.93419 11.2731C3.13526 8.45425 3.91479 5.84528 5.15606 4.45982C6.97898 2.58856 9.59943 3.18232 10.4689 3.45222C10.3296 3.81937 10.2174 4.19623 10.1331 4.57977C10.0901 4.74653 10.0567 4.90847 10.0243 5.06558L10.0132 5.11956C9.55146 4.96362 7.6146 4.45382 6.41531 5.65335C6.09151 6.01921 4.73031 7.8125 6.35535 10.3735C6.48764 10.5861 6.63482 10.7988 6.78809 11.0202L6.78827 11.0205C6.82947 11.08 6.87111 11.1402 6.91302 11.2012C7.60167 12.0432 8.08237 13.0356 8.31619 14.098C8.52116 15.468 8.24572 16.8666 7.53665 18.0565L6.84106 17.9365L6.80988 17.9309C6.48632 17.8732 6.1903 17.8203 5.90562 17.7506L5.73772 17.7086C6.45169 16.7661 6.77589 15.585 6.64318 14.4099Z" fill="#141004"/>
<path d="M6.46894 20.2814C7.30158 20.3667 8.10362 20.6416 8.81355 21.0851C9.7426 21.8293 10.3484 22.9036 10.5045 24.0839L10.6545 23.9939C10.9122 23.8357 11.1643 23.6603 11.433 23.4734L11.452 23.4601C11.5104 23.4195 11.5611 23.3839 11.6067 23.3519C11.7764 23.2327 11.8768 23.1623 12.0516 23.0583C11.7135 21.7153 10.9211 20.5307 9.80896 19.7056C8.8868 19.0924 7.83272 18.706 6.73278 18.5781C6.69112 18.5707 6.64964 18.5635 6.60836 18.5563C6.31094 18.5046 6.0239 18.4546 5.75536 18.3861C2.79311 17.7324 2.49329 15.5013 2.46331 15.0095C2.46331 13.3121 4.19028 12.3105 4.64002 12.0766C4.61125 12.0317 4.58194 11.9867 4.55241 11.9414L4.55228 11.9412L4.55203 11.9408L4.5519 11.9406L4.55165 11.9402C4.48298 11.8349 4.4131 11.7277 4.34619 11.6148C4.13635 11.2824 3.95 10.9357 3.78852 10.5772C2.979 10.997 0.736328 12.4245 0.736328 15.0395V15.0874C0.838268 16.9347 2.10952 19.3458 5.37158 20.0775C5.66117 20.1392 5.96955 20.1934 6.25209 20.2431C6.32643 20.2561 6.39899 20.2689 6.46894 20.2814Z" fill="#141004"/>
<path d="M15.0499 24.2104C14.2392 24.4099 13.4845 24.7914 12.8432 25.3259C12.5494 25.5359 12.2435 25.7518 11.9017 25.9557C10.9106 26.6194 9.74842 26.9819 8.55573 26.9993C7.2849 27.0037 6.05636 26.5429 5.10177 25.7038C3.23088 23.8745 3.82453 21.2535 4.09437 20.3839C4.46398 20.5234 4.84263 20.6376 5.2277 20.7258L5.76138 20.8397C5.60548 21.3075 5.09578 23.2388 6.29507 24.4383C6.66085 24.7622 8.45379 26.1296 11.0143 24.4983C11.2775 24.3403 11.5408 24.1538 11.8208 23.9554L11.8418 23.9405C12.6851 23.254 13.6767 22.7734 14.7381 22.537C16.1084 22.3338 17.5069 22.6114 18.6957 23.3227L18.6731 23.4487C18.6388 23.6386 18.6053 23.8246 18.5758 24.0065L18.556 24.1216C18.5047 24.4215 18.4591 24.6878 18.3899 24.9541C18.3787 25.0088 18.3647 25.0628 18.3479 25.116C17.4028 24.4075 16.2242 24.0838 15.0499 24.2104Z" fill="#141004"/>
<path d="M24.6677 20.3416L24.5777 20.1976C24.4158 19.9337 24.236 19.6759 24.0381 19.406C23.8402 19.1361 23.7742 19.0281 23.6423 18.8062C22.2987 19.1459 21.1142 19.9407 20.2903 21.0553C19.7033 21.9684 19.3359 23.0051 19.2169 24.0841L19.2049 24.1537C19.1496 24.4753 19.0978 24.7767 19.025 25.0677C18.3714 28.0306 16.1407 28.3364 15.649 28.3664C13.952 28.3664 12.9506 26.6331 12.7168 26.1833L12.255 26.4832C11.9228 26.6915 11.5761 26.8759 11.2177 27.035C11.6374 27.8326 13.0526 30.0938 15.637 30.0938H15.727C17.5739 29.9978 19.9845 28.7263 20.716 25.4636C20.806 25.0917 20.8719 24.7199 20.9319 24.36C21.0181 23.5348 21.2886 22.7395 21.7234 22.0329C22.4565 21.1179 23.5081 20.5138 24.6677 20.3416Z" fill="#141004"/>
<path d="M24.8478 15.7964C25.0438 16.6085 25.4256 17.3641 25.9631 18.0035L25.9922 18.0451C26.1929 18.3317 26.3983 18.6251 26.5928 18.9512C28.3857 21.7761 27.5762 24.379 26.3409 25.7525C25.906 26.1865 25.387 26.5269 24.8157 26.7528C24.2444 26.9787 23.6329 27.0853 23.0189 27.066C22.3416 27.06 21.6689 26.9549 21.0221 26.7541C21.1615 26.3865 21.2757 26.0097 21.3639 25.6265C21.4058 25.4467 21.4418 25.2669 21.4777 25.087L21.4778 25.0868C21.9455 25.2427 23.8764 25.7585 25.0757 24.559C25.3995 24.1931 26.7667 22.3998 25.1356 19.8388C24.9737 19.5629 24.7818 19.293 24.5779 19.0111C23.8915 18.1655 23.4111 17.1717 23.1748 16.1083C22.9716 14.7377 23.2492 13.339 23.9603 12.1498L24.6559 12.2758C24.9917 12.3298 25.2915 12.3838 25.5913 12.4557L25.7533 12.4977C25.0459 13.4435 24.7224 14.6219 24.8478 15.7964Z" fill="#141004"/>
<path d="M25.0724 9.93869L25.0156 9.92923C24.1848 9.85184 23.3827 9.58513 22.671 9.14954C21.7514 8.41015 21.147 7.34896 20.98 6.18071L20.8361 6.26468C20.6149 6.39542 20.3979 6.54724 20.1709 6.70601C20.1272 6.7366 20.0831 6.76746 20.0386 6.79847L20.0051 6.82221C19.8296 6.94689 19.6475 7.07626 19.4389 7.20031C19.7786 8.54419 20.5732 9.72891 21.6876 10.553C22.602 11.1414 23.6408 11.5089 24.7218 11.6266L24.7914 11.6385C25.1129 11.6939 25.4143 11.7457 25.7052 11.8185C28.6674 12.4782 28.9733 14.7093 29.0032 15.1952C29.0032 16.8985 27.2763 17.9001 26.8205 18.128C26.9035 18.25 26.9824 18.3759 27.0639 18.5058L27.0818 18.5344C27.0945 18.5548 27.1074 18.5752 27.1204 18.5958C27.3461 18.9282 27.5465 19.277 27.72 19.6394C28.5235 19.2136 30.7962 17.7801 30.7662 15.1652V15.1292C30.6523 13.2879 29.381 10.8889 26.119 10.1451C25.7667 10.0542 25.4145 9.99561 25.0724 9.93869Z" fill="#141004"/>
<path d="M16.4346 6.00156C17.2449 5.80426 17.9996 5.42479 18.6413 4.892C18.9411 4.67009 19.247 4.45417 19.5708 4.29224C22.3951 2.49294 24.9976 3.27264 26.3887 4.50815C28.2536 6.33743 27.66 8.9584 27.3901 9.82806C27.0234 9.68786 26.6465 9.57559 26.2628 9.49219C26.0829 9.44421 25.903 9.40822 25.7231 9.37224C25.879 8.91042 26.3947 6.97318 25.1954 5.77365C24.8297 5.44978 23.0367 4.08832 20.4762 5.71368C20.2223 5.86827 19.9735 6.04318 19.7157 6.2244C19.6934 6.24004 19.6711 6.25573 19.6487 6.27146C18.8032 6.95806 17.8096 7.43854 16.7464 7.6749C15.3768 7.87991 13.9784 7.60442 12.7888 6.89521C12.8198 6.7441 12.8458 6.59548 12.8716 6.44776C12.8858 6.36682 12.8999 6.28615 12.9147 6.20548C12.9687 5.86362 13.0227 5.56374 13.0946 5.26385C13.1366 5.20388 13.1366 5.1499 13.1366 5.09592C14.0801 5.8078 15.26 6.13182 16.4346 6.00156Z" fill="#141004"/>
<path d="M47.372 23.3437H40.2786V22.2123H41.5983C42.2817 22.2123 42.6823 21.8351 42.6823 21.128V9.05953C42.6823 8.3524 42.2817 7.97526 41.5983 7.97526H40.2786V6.84384H47.372C50.0349 6.84384 51.6139 7.73954 52.7922 9.05953C54.3475 10.8038 55.4316 12.7131 55.4316 15.0938C55.4316 17.4745 54.3475 19.3837 52.7922 21.128C51.6139 22.448 50.0349 23.3437 47.372 23.3437ZM45.9345 22.2123H47.4662C51.0483 22.2123 52.6508 19.5487 52.6508 16.0602V14.1274C52.6508 10.6388 51.0483 7.97526 47.4662 7.97526H45.9345C45.251 7.97526 44.8504 8.3524 44.8504 9.05953V21.128C44.8504 21.8351 45.251 22.2123 45.9345 22.2123Z" fill="#141004"/>
<path d="M65.5355 17.5216V17.9223H58.2065V18.7002C58.2065 20.9866 59.3848 22.4009 61.0344 22.4009C63.1318 22.4009 64.4043 20.633 64.4043 18.8416H65.5355C65.5355 21.0102 63.8623 23.5323 61.0108 23.5323C59.7382 23.5323 58.6542 22.9666 57.7587 22.118C56.6511 21.0809 55.9913 19.7609 55.9913 18.0166C55.9913 16.4609 56.604 15.0231 57.853 13.8916C58.8899 12.9488 60.021 12.5009 61.0344 12.5009C62.2362 12.5009 63.2967 13.0431 64.098 13.8916C64.9935 14.8345 65.5355 16.1545 65.5355 17.5216ZM61.0108 13.6324C59.5969 13.6324 58.395 14.6695 58.23 16.8852H63.1082C63.3203 16.8852 63.4381 16.7673 63.4381 16.5552C63.4381 14.9288 62.4719 13.6324 61.0108 13.6324Z" fill="#141004"/>
<path d="M71.1932 23.3437H65.9615V22.3537H66.9042C67.3284 22.3537 67.6111 22.0709 67.6111 21.6466V8.51739C67.6111 8.09311 67.3284 7.81026 66.9042 7.81026H65.9615V6.84384L69.5436 6.58455V21.6466C69.5436 22.0709 69.8263 22.3537 70.2505 22.3537H71.1932V23.3437Z" fill="#141004"/>
<path d="M77.2719 28.058H71.5689V27.068H72.5116C72.9358 27.068 73.2186 26.7851 73.2186 26.3608V14.5281C73.2186 14.1038 72.9358 13.8209 72.5116 13.8209H71.5689V12.8545L74.9389 12.6424V14.1745H75.151C75.7873 13.1374 76.8006 12.5009 78.1203 12.5009C79.2986 12.5009 80.4533 13.0666 81.396 14.1038C82.3151 15.1173 82.9985 16.4845 82.9985 18.0166C82.9985 19.5487 82.3151 20.963 81.396 21.9766C80.4533 23.0373 79.5343 23.5323 78.191 23.5323C76.942 23.5323 75.9758 23.108 75.3159 22.2359H75.1039L75.151 25.5123V26.3608C75.151 26.7851 75.4338 27.068 75.858 27.068H77.2719V28.058ZM77.9789 22.4009C79.6992 22.4009 80.7833 21.0809 80.7833 18.6766V17.3566C80.7833 14.9523 79.6992 13.6324 77.9789 13.6324C76.2586 13.6324 75.151 14.9523 75.151 17.3566V18.6766C75.151 21.0809 76.2586 22.4009 77.9789 22.4009Z" fill="#141004"/>
<path d="M94.509 22.3537H95.4516V23.3437H90.22V22.3537H91.1626C91.5868 22.3537 91.8696 22.0709 91.8696 21.6466V15.9659C91.8696 14.3395 91.1155 13.6324 89.9136 13.6324C88.4054 13.6324 86.9207 14.7873 86.9207 17.2859V21.6466C86.9207 22.0709 87.2035 22.3537 87.6277 22.3537H88.5704V23.3437H83.3387V22.3537H84.2813C84.7055 22.3537 84.9883 22.0709 84.9883 21.6466V8.42311C84.9883 7.99883 84.7055 7.71597 84.2813 7.71597H83.3387V6.84384L86.8736 6.63169V11.6052L86.7322 14.4809H86.9207C87.557 13.3024 88.8296 12.5009 90.2671 12.5009C92.5294 12.5009 93.802 13.9624 93.802 16.343V21.6466C93.802 22.0709 94.0848 22.3537 94.509 22.3537Z" fill="#141004"/>
<path d="M98.5675 10.7331C97.8134 10.7331 97.1771 10.0967 97.1771 9.34239C97.1771 8.58811 97.8134 7.95168 98.5675 7.95168C99.3216 7.95168 99.9579 8.58811 99.9579 9.34239C99.9579 10.0967 99.3216 10.7331 98.5675 10.7331ZM101.207 23.3437H95.9752V22.3537H96.9179C97.3421 22.3537 97.6249 22.0709 97.6249 21.6466V14.5752C97.6249 14.1509 97.3421 13.8681 96.9179 13.8681H95.9752V12.9016L99.5573 12.6424V21.6466C99.5573 22.0709 99.8401 22.3537 100.264 22.3537H101.207V23.3437Z" fill="#141004"/>
<path d="M112.251 23.3437H105.276V22.2123H106.595C107.279 22.2123 107.679 21.8351 107.679 21.128V9.05953C107.679 8.3524 107.279 7.97526 106.595 7.97526H105.276V6.84384H112.251V7.97526H110.932C110.248 7.97526 109.848 8.3524 109.848 9.05953V21.128C109.848 21.8351 110.248 22.2123 110.932 22.2123H112.251V23.3437Z" fill="#141004"/>
<path d="M118.331 23.3437H113.099V22.3537H114.042C114.466 22.3537 114.749 22.0709 114.749 21.6466V14.5281C114.749 14.1038 114.466 13.8209 114.042 13.8209H113.099V12.8545L116.493 12.6424V14.5281H116.681C117.365 13.2316 118.614 12.5009 120.075 12.5009C122.243 12.5009 123.61 13.9624 123.61 16.343V21.6466C123.61 22.0709 123.892 22.3537 124.317 22.3537H125.259V23.3437H120.028V22.3537H120.97C121.394 22.3537 121.677 22.0709 121.677 21.6466V16.1073C121.677 14.3866 120.923 13.6795 119.721 13.6795C118.213 13.6795 116.681 14.9995 116.681 17.498V21.6466C116.681 22.0709 116.964 22.3537 117.388 22.3537H118.331V23.3437Z" fill="#141004"/>
<path d="M129.679 23.5323C127.888 23.5323 126.592 22.4009 126.592 20.0202V13.7738H124.706V12.6895C126.875 12.3831 127.322 11.1102 127.676 8.49382H128.524V12.6895H131.753V13.7738H128.524V20.6094C128.524 21.8587 129.066 22.4244 129.962 22.4244C130.857 22.4244 131.352 21.788 131.352 20.4916V18.5352H132.436V20.4209C132.436 22.283 131.682 23.5323 129.679 23.5323Z" fill="#141004"/>
<path d="M142.548 17.5216V17.9223H135.219V18.7002C135.219 20.9866 136.397 22.4009 138.046 22.4009C140.144 22.4009 141.416 20.633 141.416 18.8416H142.548C142.548 21.0102 140.874 23.5323 138.023 23.5323C136.75 23.5323 135.666 22.9666 134.771 22.118C133.663 21.0809 133.003 19.7609 133.003 18.0166C133.003 16.4609 133.616 15.0231 134.865 13.8916C135.902 12.9488 137.033 12.5009 138.046 12.5009C139.248 12.5009 140.309 13.0431 141.11 13.8916C142.006 14.8345 142.548 16.1545 142.548 17.5216ZM138.023 13.6324C136.609 13.6324 135.407 14.6695 135.242 16.8852H140.12C140.332 16.8852 140.45 16.7673 140.45 16.5552C140.45 14.9288 139.484 13.6324 138.023 13.6324Z" fill="#141004"/>
<path d="M148.205 23.3437H142.974V22.3537H143.916C144.34 22.3537 144.623 22.0709 144.623 21.6466V8.51739C144.623 8.09311 144.34 7.81026 143.916 7.81026H142.974V6.84384L146.556 6.58455V21.6466C146.556 22.0709 146.838 22.3537 147.263 22.3537H148.205V23.3437Z" fill="#141004"/>
<path d="M154.19 23.3437H148.958V22.3537H149.901C150.325 22.3537 150.608 22.0709 150.608 21.6466V8.51739C150.608 8.09311 150.325 7.81026 149.901 7.81026H148.958V6.84384L152.54 6.58455V21.6466C152.54 22.0709 152.823 22.3537 153.247 22.3537H154.19V23.3437Z" fill="#141004"/>
<path d="M157.582 10.7331C156.828 10.7331 156.192 10.0967 156.192 9.34239C156.192 8.58811 156.828 7.95168 157.582 7.95168C158.336 7.95168 158.972 8.58811 158.972 9.34239C158.972 10.0967 158.336 10.7331 157.582 10.7331ZM160.221 23.3437H154.99V22.3537H155.932C156.357 22.3537 156.639 22.0709 156.639 21.6466V14.5752C156.639 14.1509 156.357 13.8681 155.932 13.8681H154.99V12.9016L158.572 12.6424V21.6466C158.572 22.0709 158.855 22.3537 159.279 22.3537H160.221V23.3437Z" fill="#141004"/>
<path d="M170.478 12.3124C171.586 12.3124 172.34 13.0902 172.34 14.1038C172.34 14.8109 171.868 15.1881 171.373 15.1881C170.831 15.1881 170.454 14.7873 170.454 14.2688C170.454 13.8681 170.666 13.6088 170.926 13.3966C170.831 13.3024 170.572 13.1845 170.313 13.1845C169.606 13.1845 169.04 13.7031 169.04 14.5281C169.04 15.2116 169.229 15.3766 169.229 16.2016C169.229 17.2623 168.734 18.1109 167.886 18.818C167.132 19.4309 166.213 19.9023 165.128 19.9023C164.492 19.9023 163.927 19.7373 163.408 19.5016C162.678 19.7609 162.23 20.1616 162.23 20.7744C162.23 21.3637 162.795 21.6466 163.667 21.6466H166.99C168.216 21.6466 169.205 22.0237 169.842 22.5659C170.525 23.1316 170.926 23.8387 170.926 24.6873C170.926 26.8087 168.569 28.058 165.906 28.058H164.704C162.489 28.058 160.274 27.1623 160.274 25.3237C160.274 24.2158 161.004 23.5794 161.876 23.1787V22.9901C161.311 22.6366 160.792 22.0237 160.792 21.1044C160.792 20.0909 161.523 19.4309 162.348 19.0066V18.818C161.499 18.1109 161.028 17.2623 161.028 16.2016C161.028 15.1409 161.499 14.2924 162.348 13.5852C163.102 12.9724 164.021 12.5009 165.128 12.5009C166.33 12.5009 167.297 12.9016 168.051 13.6324H168.239C168.593 12.9724 169.229 12.3124 170.478 12.3124ZM167.202 16.4845V15.9188C167.202 14.4102 166.307 13.5381 165.128 13.5381C163.95 13.5381 163.055 14.4102 163.055 15.9188V16.4845C163.055 17.993 163.95 18.8652 165.128 18.8652C166.307 18.8652 167.202 17.993 167.202 16.4845ZM167.108 23.4851H164.021C163.667 23.4851 163.29 23.4616 162.937 23.3909C162.277 23.768 161.759 24.3101 161.759 25.1116C161.759 26.2901 163.078 26.9265 164.586 26.9265H166.071C168.145 26.9265 169.347 26.1251 169.347 25.0173C169.347 24.0508 168.475 23.4851 167.108 23.4851Z" fill="#141004"/>
<path d="M181.376 17.5216V17.9223H174.047V18.7002C174.047 20.9866 175.226 22.4009 176.875 22.4009C178.973 22.4009 180.245 20.633 180.245 18.8416H181.376C181.376 21.0102 179.703 23.5323 176.852 23.5323C175.579 23.5323 174.495 22.9666 173.6 22.118C172.492 21.0809 171.832 19.7609 171.832 18.0166C171.832 16.4609 172.445 15.0231 173.694 13.8916C174.731 12.9488 175.862 12.5009 176.875 12.5009C178.077 12.5009 179.138 13.0431 179.939 13.8916C180.834 14.8345 181.376 16.1545 181.376 17.5216ZM176.852 13.6324C175.438 13.6324 174.236 14.6695 174.071 16.8852H178.949C179.161 16.8852 179.279 16.7673 179.279 16.5552C179.279 14.9288 178.313 13.6324 176.852 13.6324Z" fill="#141004"/>
<path d="M187.264 23.3437H182.032V22.3537H182.975C183.399 22.3537 183.682 22.0709 183.682 21.6466V14.5281C183.682 14.1038 183.399 13.8209 182.975 13.8209H182.032V12.8545L185.426 12.6424V14.5281H185.615C186.298 13.2316 187.547 12.5009 189.008 12.5009C191.176 12.5009 192.543 13.9624 192.543 16.343V21.6466C192.543 22.0709 192.826 22.3537 193.25 22.3537H194.193V23.3437H188.961V22.3537H189.904C190.328 22.3537 190.611 22.0709 190.611 21.6466V16.1073C190.611 14.3866 189.856 13.6795 188.655 13.6795C187.146 13.6795 185.615 14.9995 185.615 17.498V21.6466C185.615 22.0709 185.897 22.3537 186.321 22.3537H187.264V23.3437Z" fill="#141004"/>
<path d="M202.492 19.2423V18.8652H203.576V19.2423C203.576 21.9766 201.62 23.5323 199.64 23.5323C198.25 23.5323 197.119 22.943 196.247 22.0709C195.116 20.9394 194.479 19.6902 194.479 18.0166C194.479 16.4138 195.116 15.0938 196.247 13.9624C197.142 13.0666 198.321 12.5009 199.664 12.5009C201.125 12.5009 202.398 13.1138 203.081 13.9859C203.387 14.3866 203.576 14.8581 203.576 15.3295C203.576 16.2723 203.081 16.838 202.327 16.838C201.62 16.838 201.149 16.2959 201.149 15.6595C201.149 14.9995 201.479 14.7166 201.879 14.4809C201.479 14.0331 200.724 13.6324 199.64 13.6324C197.708 13.6324 196.671 15.1409 196.671 17.1209V18.9123C196.671 20.963 197.896 22.4009 199.664 22.4009C201.243 22.4009 202.492 21.2223 202.492 19.2423Z" fill="#141004"/>
<path d="M213.736 17.5216V17.9223H206.407V18.7002C206.407 20.9866 207.586 22.4009 209.235 22.4009C211.333 22.4009 212.605 20.633 212.605 18.8416H213.736C213.736 21.0102 212.063 23.5323 209.212 23.5323C207.939 23.5323 206.855 22.9666 205.96 22.118C204.852 21.0809 204.192 19.7609 204.192 18.0166C204.192 16.4609 204.805 15.0231 206.054 13.8916C207.091 12.9488 208.222 12.5009 209.235 12.5009C210.437 12.5009 211.498 13.0431 212.299 13.8916C213.194 14.8345 213.736 16.1545 213.736 17.5216ZM209.212 13.6324C207.798 13.6324 206.596 14.6695 206.431 16.8852H211.309C211.521 16.8852 211.639 16.7673 211.639 16.5552C211.639 14.9288 210.673 13.6324 209.212 13.6324Z" fill="#141004"/>
</svg>
